<svg width="98" height="24" viewBox="0 0 98 24" fill="none" xmlns="http://www.w3.org/2000/svg">
<path d="M40.755 18L40.041 15.858H35.298L34.584 18H32.051L36.216 6.1H39.123L43.305 18H40.755ZM36.046 13.665H39.31L37.678 8.803L36.046 13.665ZM48.172 18.238C46.8914 18.238 45.8204 17.8073 44.959 16.946C44.109 16.0847 43.684 15.0193 43.684 13.75C43.684 12.4807 44.109 11.4153 44.959 10.554C45.8204 9.69267 46.8914 9.262 48.172 9.262C48.9994 9.262 49.753 9.46033 50.433 9.857C51.113 10.2537 51.6287 10.7863 51.98 11.455L50.093 12.56C49.923 12.2087 49.6624 11.931 49.311 11.727C48.971 11.523 48.5857 11.421 48.155 11.421C47.4977 11.421 46.9537 11.642 46.523 12.084C46.0924 12.5147 45.877 13.07 45.877 13.75C45.877 14.4187 46.0924 14.974 46.523 15.416C46.9537 15.8467 47.4977 16.062 48.155 16.062C48.597 16.062 48.988 15.9657 49.328 15.773C49.6794 15.569 49.94 15.2913 50.11 14.94L52.014 16.028C51.64 16.6967 51.113 17.235 50.433 17.643C49.753 18.0397 48.9994 18.238 48.172 18.238ZM57.0871 18.238C55.8064 18.238 54.7354 17.8073 53.8741 16.946C53.0241 16.0847 52.5991 15.0193 52.5991 13.75C52.5991 12.4807 53.0241 11.4153 53.8741 10.554C54.7354 9.69267 55.8064 9.262 57.0871 9.262C57.9144 9.262 58.6681 9.46033 59.3481 9.857C60.0281 10.2537 60.5438 10.7863 60.8951 11.455L59.0081 12.56C58.8381 12.2087 58.5774 11.931 58.2261 11.727C57.8861 11.523 57.5008 11.421 57.0701 11.421C56.4128 11.421 55.8688 11.642 55.4381 12.084C55.0074 12.5147 54.7921 13.07 54.7921 13.75C54.7921 14.4187 55.0074 14.974 55.4381 15.416C55.8688 15.8467 56.4128 16.062 57.0701 16.062C57.5121 16.062 57.9031 15.9657 58.2431 15.773C58.5944 15.569 58.8551 15.2913 59.0251 14.94L60.9291 16.028C60.5551 16.6967 60.0281 17.235 59.3481 17.643C58.6681 18.0397 57.9144 18.238 57.0871 18.238ZM69.1981 16.946C68.3255 17.8073 67.2601 18.238 66.0021 18.238C64.7441 18.238 63.6788 17.8073 62.8061 16.946C61.9448 16.0733 61.5141 15.008 61.5141 13.75C61.5141 12.492 61.9448 11.4323 62.8061 10.571C63.6788 9.69833 64.7441 9.262 66.0021 9.262C67.2601 9.262 68.3255 9.69833 69.1981 10.571C70.0708 11.4323 70.5071 12.492 70.5071 13.75C70.5071 15.008 70.0708 16.0733 69.1981 16.946ZM64.3531 15.433C64.7951 15.875 65.3448 16.096 66.0021 16.096C66.6595 16.096 67.2091 15.875 67.6511 15.433C68.0931 14.991 68.3141 14.43 68.3141 13.75C68.3141 13.07 68.0931 12.509 67.6511 12.067C67.2091 11.625 66.6595 11.404 66.0021 11.404C65.3448 11.404 64.7951 11.625 64.3531 12.067C63.9225 12.509 63.7071 13.07 63.7071 13.75C63.7071 14.43 63.9225 14.991 64.3531 15.433ZM77.6599 9.5H79.8529V18H77.6599V17.048C77.1272 17.8413 76.2829 18.238 75.1269 18.238C74.1975 18.238 73.4269 17.9263 72.8149 17.303C72.2142 16.6797 71.9139 15.8183 71.9139 14.719V9.5H74.1069V14.447C74.1069 15.0137 74.2599 15.45 74.5659 15.756C74.8719 16.0507 75.2799 16.198 75.7899 16.198C76.3565 16.198 76.8099 16.0223 77.1499 15.671C77.4899 15.3197 77.6599 14.7927 77.6599 14.09V9.5ZM86.5874 9.262C87.5167 9.262 88.2817 9.57367 88.8824 10.197C89.4944 10.8203 89.8004 11.6817 89.8004 12.781V18H87.6074V13.053C87.6074 12.4863 87.4544 12.0557 87.1484 11.761C86.8424 11.455 86.4344 11.302 85.9244 11.302C85.3577 11.302 84.9044 11.4777 84.5644 11.829C84.2244 12.1803 84.0544 12.7073 84.0544 13.41V18H81.8614V9.5H84.0544V10.452C84.5871 9.65867 85.4314 9.262 86.5874 9.262ZM96.5349 11.608H94.6139V15.144C94.6139 15.4387 94.6876 15.654 94.8349 15.79C94.9823 15.926 95.1976 16.0053 95.4809 16.028C95.7643 16.0393 96.1156 16.0337 96.5349 16.011V18C95.0276 18.17 93.9623 18.0283 93.3389 17.575C92.7269 17.1217 92.4209 16.3113 92.4209 15.144V11.608H90.9419V9.5H92.4209V7.783L94.6139 7.12V9.5H96.5349V11.608Z" fill="white"/>
<path fill-rule="evenodd" clip-rule="evenodd" d="M12 2C6.48 2 2 6.48 2 12C2 17.52 6.48 22 12 22C17.52 22 22 17.52 22 12C22 6.48 17.52 2 12 2ZM7.07 18.28C7.5 17.38 10.12 16.5 12 16.5C13.88 16.5 16.51 17.38 16.93 18.28C15.57 19.36 13.86 20 12 20C10.14 20 8.43 19.36 7.07 18.28ZM18.36 16.83C16.93 15.09 13.46 14.5 12 14.5C10.54 14.5 7.07 15.09 5.64 16.83C4.62 15.49 4 13.82 4 12C4 7.59 7.59 4 12 4C16.41 4 20 7.59 20 12C20 13.82 19.38 15.49 18.36 16.83ZM12 6C10.06 6 8.5 7.56 8.5 9.5C8.5 11.44 10.06 13 12 13C13.94 13 15.5 11.44 15.5 9.5C15.5 7.56 13.94 6 12 6ZM12 11C11.17 11 10.5 10.33 10.5 9.5C10.5 8.67 11.17 8 12 8C12.83 8 13.5 8.67 13.5 9.5C13.5 10.33 12.83 11 12 11Z" fill="white"/>
<mask id="mask0_1_65" style="mask-type:luminance" maskUnits="userSpaceOnUse" x="2" y="2" width="20" height="20">
<path fill-rule="evenodd" clip-rule="evenodd" d="M12 2C6.48 2 2 6.48 2 12C2 17.52 6.48 22 12 22C17.52 22 22 17.52 22 12C22 6.48 17.52 2 12 2ZM7.07 18.28C7.5 17.38 10.12 16.5 12 16.5C13.88 16.5 16.51 17.38 16.93 18.28C15.57 19.36 13.86 20 12 20C10.14 20 8.43 19.36 7.07 18.28ZM18.36 16.83C16.93 15.09 13.46 14.5 12 14.5C10.54 14.5 7.07 15.09 5.64 16.83C4.62 15.49 4 13.82 4 12C4 7.59 7.59 4 12 4C16.41 4 20 7.59 20 12C20 13.82 19.38 15.49 18.36 16.83ZM12 6C10.06 6 8.5 7.56 8.5 9.5C8.5 11.44 10.06 13 12 13C13.94 13 15.5 11.44 15.5 9.5C15.5 7.56 13.94 6 12 6ZM12 11C11.17 11 10.5 10.33 10.5 9.5C10.5 8.67 11.17 8 12 8C12.83 8 13.5 8.67 13.5 9.5C13.5 10.33 12.83 11 12 11Z" fill="white"/>
</mask>
<g mask="url(#mask0_1_65)">
</g>
</svg>
